<?xml version="1.0" encoding="utf-8"?>
<!-- Generator: Adobe Illustrator 16.0.4, SVG Export Plug-In . SVG Version: 6.00 Build 0)  -->
<!DOCTYPE svg PUBLIC "-//W3C//DTD SVG 1.1//EN" "http://www.w3.org/Graphics/SVG/1.1/DTD/svg11.dtd">
<svg version="1.1" id="Layer_1" xmlns="http://www.w3.org/2000/svg" xmlns:xlink="http://www.w3.org/1999/xlink" x="0px" y="0px"
	 width="177.5px" height="133.25px" viewBox="0 0 177.5 133.25" enable-background="new 0 0 177.5 133.25" xml:space="preserve">
<g>
	<path fill="none" stroke="#003B78" stroke-miterlimit="3.8637" d="M37.81,53.391c0-28.246,22.866-51.141,51.112-51.141
		 M88.953,2.25c28.245,0,51.111,22.896,51.111,51.141c0,28.244-22.898,51.14-51.142,51.14 M88.937,104.531
		c-28.246,0-51.159-22.896-51.159-51.14"/>
	<path fill-rule="evenodd" clip-rule="evenodd" fill="#003B78" d="M4.067,124.096v7.414H2v-7.414H4.067L4.067,124.096z
		 M11.869,124.096l0.171,0.621l0.155-0.621h1.948l-1.907,7.414H8.79l-2.032-7.414H11.869L11.869,124.096z M21.393,124.096v7.414
		h-4.725v-7.414H21.393L21.393,124.096z M27.201,124.096v4.854c0,1.168,1.083,1.475,2.362,1.375v-6.229h4.331v7.02v0.395h-7.582
		c-0.489,0-1.052-0.152-1.573-0.395c-0.977-0.455-1.77-1.283-1.77-2.957v-1.078v-2.984H27.201L27.201,124.096z M42.26,124.096v7.414
		h-4.527v-7.414H42.26L42.26,124.096z M50.332,124.096v4.848c0,1.168,1.082,1.475,2.36,1.375v-6.223h4.333v7.014v0.395h-7.583
		c-0.489,0-1.052-0.152-1.573-0.395c-0.977-0.451-1.768-1.283-1.768-2.955v-1.08v-2.979H50.332L50.332,124.096z M63.032,124.096
		v4.854c0.098,1.375,0.883,1.475,2.164,1.375v-6.229h4.332v7.02v0.395H61.26c-0.494,0-0.984-0.098-1.38-0.395
		c-0.785-0.494-1.278-1.375-1.278-2.857v-1.178v-2.984H63.032L63.032,124.096z M75.632,124.096v5.645h4.529v1.77h-9.056v-7.414
		H75.632L75.632,124.096z M86.281,124.096c-1.515,0.803-3.932,0.928-5.31-0.006L86.281,124.096L86.281,124.096z M91.426,124.096
		c-0.99,1.928-1.691,2.562-2.112,2.984c-1.574,1.574-4.85,3.104-7.185,2.559c-0.621-0.143-0.827-0.188-1.019-0.266
		c-0.155-0.064-0.302-0.148-0.655-0.326L80.559,128c0,0,2.166,1.207,4.129,0.553c2.216-0.74,3.149-2.758,3.642-3.641
		c0.139-0.23,0.299-0.506,0.46-0.814L91.426,124.096L91.426,124.096z M104.199,124.096c0.037,1.1,0.129,2.096,0.277,2.984
		c0.492,2.264,1.771,3.738,4.725,3.738c2.754,0,3.938-1.574,4.425-3.738c0.219-0.945,0.276-1.938,0.292-2.982l5.248-0.002
		c-0.19,1.072-0.448,2.107-0.812,2.984c-0.198,0.395-0.374,0.797-0.69,1.178c-1.009,1.219-2.386,2.146-3.938,2.857
		c-1.283,0.584-2.751,0.879-4.43,0.879c-1.97,0.102-3.64-0.188-5.215-0.879c-1.671-0.691-3.056-1.969-4.233-4.035
		c-0.098-0.197-0.161-0.406-0.244-0.592c-0.293-0.662-0.495-1.482-0.658-2.396L104.199,124.096L104.199,124.096z M124.943,124.096
		v7.412h-4.523v-7.412H124.943L124.943,124.096z M131.737,124.096v7.018v0.395h-4.629v-7.412H131.737L131.737,124.096z
		 M138.527,124.096v7.412h-4.623v-7.412H138.527L138.527,124.096z M144.534,124.096v4.85c0.099,1.377,0.885,1.475,2.167,1.377
		v-6.227h4.331v7.018v0.393h-8.268c-0.493,0-0.985-0.098-1.38-0.393c-0.788-0.494-1.28-1.377-1.28-2.859v-1.178v-2.98H144.534
		L144.534,124.096z M163.049,124.096v2.984v4.035v0.395h-4.136v-0.395v-4.035v-1.771h-2.165v1.771v4.035v0.395h-4.135v-0.395v-4.035
		v-2.984H163.049L163.049,124.096z M169.047,124.096v4.85c0.102,1.377,0.887,1.473,2.168,1.377v-6.227h4.332v7.016v0.393h-8.27
		c-0.495,0-0.984-0.098-1.377-0.393c-0.789-0.494-1.28-1.375-1.28-2.859v-1.176v-2.98H169.047L169.047,124.096z"/>
	<path fill-rule="evenodd" clip-rule="evenodd" fill="#003B78" d="M4.067,116.096v8H2v-8H4.067L4.067,116.096z M9.658,116.096
		l2.211,8H6.757l-2.192-8H9.658L9.658,116.096z M16.202,116.096l-2.058,8h-1.948l2-8H16.202L16.202,116.096z M21.393,116.096v8
		h-4.725v-8H21.393L21.393,116.096z M94.588,116.096c-0.177,0.393-0.343,0.822-0.447,1.232h3.641l-0.298,1.186h-3.938
		c0,0-0.492,1.672-0.984,2.949c-0.193,0.592-0.393,1.088-0.587,1.48c-0.192,0.426-0.375,0.807-0.549,1.146l-2.636,0.006
		c0.183-0.346,0.367-0.736,0.524-1.152c0.692-1.57,1.472-3.35,1.771-4.133c0.099-0.197,0.196-0.297,0.196-0.297H88.33
		c0,0.1,0.051,0.189,0.074,0.297c0.482,2.229-0.564,4.289-1.845,5.115c-0.088,0.057-0.181,0.111-0.277,0.162l-5.31,0.008
		c-0.195-0.137-0.369-0.289-0.516-0.465c-0.701-0.83-0.689-1.957-0.294-2.852c0.49-1.113,1.154-2.715,3.347-3.352
		c0.987-0.287,1.573-0.191,2.459-0.1h5.909c0,0,0.286-0.527,0.793-1.236L94.588,116.096L94.588,116.096z M104.233,116.096
		c-0.053,0.846-0.053,1.758-0.053,2.715v1.77v2.363c0,0.395,0.007,0.775,0.019,1.146l-5.254,0.006
		c-0.064-0.373-0.124-0.758-0.18-1.152c-0.096-1.283-0.096-2.758,0.1-4.133c0.095-0.891,0.191-1.771,0.391-2.562
		c0.01-0.053,0.021-0.104,0.034-0.156L104.233,116.096L104.233,116.096z M118.932,116.096c0.073,0.248,0.143,0.504,0.213,0.746
		c0.098,0.586,0.199,1.277,0.199,1.969c0.095,1.275,0.095,2.752,0,4.133c-0.053,0.385-0.111,0.77-0.178,1.148l-5.248,0.004
		c0.006-0.375,0.006-0.76,0.006-1.152v-2.363v-1.67c0-1.002-0.002-1.953-0.056-2.811L118.932,116.096L118.932,116.096z
		 M22.969,124.096v-7.254h4.232v7.254H22.969L22.969,124.096z M29.563,124.096v-7.254h4.331v7.254H29.563L29.563,124.096z
		 M37.732,124.096v-5.285l-3.148-0.1v-1.869h10.926v1.869H42.26v5.385H37.732L37.732,124.096z M46.1,124.096v-7.258h4.232v7.258
		H46.1L46.1,124.096z M52.692,124.096v-7.258h4.333v7.258H52.692L52.692,124.096z M58.602,124.096v-0.295
		c0-1.414,0.988-2.525,2.164-2.529h2.266v2.824H58.602L58.602,124.096z M65.196,124.096v-3.91c0,0,0.1-0.791-0.197-1.375
		c-0.195-0.297-0.491-0.592-0.884-0.592h-4.922v-1.377h8.071c1.28,0,2.264,0.994,2.264,1.969v0.686v4.6H65.196L65.196,124.096z
		 M71.105,124.096v-7.254h4.526v7.254H71.105L71.105,124.096z M120.42,124.096v-4.406v-2.848h15.02c1.577,0,3.088,1.553,3.088,2.732
		v4.521h-4.623v-4.406c0-1.176-0.887-1.471-2.167-1.471v1.471v4.406h-4.629v-4.406c0-1.176-0.885-1.471-2.165-1.471v1.471v4.406
		H120.42L120.42,124.096z M140.104,124.096v-0.299c0-1.41,0.99-2.525,2.167-2.527h2.263v2.826H140.104L140.104,124.096z
		 M146.701,124.096v-3.914c0,0,0.098-0.789-0.198-1.373c-0.194-0.297-0.492-0.594-0.886-0.594h-4.921v-1.375h8.071
		c1.28,0,2.265,0.992,2.265,1.969v0.682v4.605H146.701L146.701,124.096z M152.613,124.096v-1.152v-4.133v-1.969h4.135v1.969v4.133
		v0.588h2.165v-0.588v-4.133v-1.969h4.136v1.969v4.133v1.152H152.613L152.613,124.096z M164.62,124.096v-0.299
		c0-1.412,0.989-2.525,2.162-2.527h2.265v2.826H164.62L164.62,124.096z M171.215,124.096v-3.914c0,0,0.097-0.791-0.197-1.375
		c-0.198-0.295-0.492-0.592-0.885-0.592h-4.921v-1.377h8.068c1.282,0,2.267,0.994,2.267,1.969v0.684v4.605H171.215L171.215,124.096z
		 M86.262,118.811c-0.097-0.492-0.691-0.719-1.476-0.592c-0.333,0.053-0.689,0.295-0.887,0.592c0,0-1.066,1.965-1.282,2.461
		c-0.255,0.604-0.489,1.178-0.489,1.672c0,0.486,0.309,0.725,0.885,0.883c0.703,0.193,1.282-0.195,1.773-0.883
		c0.294-0.393,0.477-0.795,0.689-1.283C85.94,120.598,86.461,119.691,86.262,118.811L86.262,118.811z"/>
	<path fill-rule="evenodd" clip-rule="evenodd" fill="#003B78" d="M118.354,92.096c-8.18,6.232-18.385,9.936-29.439,9.936
		c-11.053,0-21.256-3.703-29.436-9.934L118.354,92.096L118.354,92.096z M129.841,92.096c-0.717,0.473-1.188,1.283-1.188,2.207
		c0,1.457,1.18,2.639,2.639,2.639c1.454,0,2.637-1.182,2.637-2.639c0-0.924-0.474-1.734-1.189-2.205L129.841,92.096L129.841,92.096z
		 M2,116.096v-6.342h5.906l1.752,6.342H4.565l-0.498-1.816v1.816H2L2,116.096z M14.196,116.096l1.585-6.342h5.611v6.342h-4.725
		v-1.816l-0.467,1.816H14.196L14.196,116.096z M92.669,116.096c0.375-0.529,0.872-1.154,1.463-1.736
		c0.896-0.883,2.01-1.566,3.649-1.947v1.078c-1.652-0.068-2.027,0.75-2.457,1.285c-0.137,0.17-0.451,0.695-0.736,1.322
		L92.669,116.096L92.669,116.096z M99.29,116.096c0.106-0.445,0.283-0.885,0.46-1.32c1.477-3.352,4.627-5.715,9.451-5.615
		c4.425,0,7.68,1.775,9.25,5.615c0.193,0.377,0.345,0.844,0.48,1.314l-5.063,0.006c-0.028-0.469-0.073-0.912-0.143-1.32
		c-0.39-2.463-1.477-4.232-4.524-4.232c-3.447,0-4.528,1.57-4.824,4.232c-0.069,0.416-0.114,0.859-0.144,1.322L99.29,116.096
		L99.29,116.096z M132.545,95.779l-0.479-0.672c-0.111-0.156-0.211-0.281-0.278-0.361l-0.217-0.271c0.529,0,0.812-0.348,0.812-0.799
		c0-0.285-0.144-0.479-0.294-0.602c-0.157-0.131-0.387-0.213-0.778-0.213h-0.926v2.918h0.462v-1.291l0.294-0.002
		c0,0,0.316,0.488,0.571,0.859c0.135,0.201,0.178,0.27,0.271,0.434H132.545L132.545,95.779z M131.898,93.68
		c0,0.17-0.062,0.309-0.162,0.393c-0.117,0.1-0.28,0.139-0.57,0.139h-0.32v-1.014h0.346c0.171,0,0.305,0.02,0.399,0.055
		C131.771,93.316,131.898,93.477,131.898,93.68L131.898,93.68z M131.283,96.436c-1.181,0-2.133-0.953-2.133-2.129
		c0-1.178,0.952-2.133,2.133-2.133c1.175,0,2.13,0.955,2.13,2.133C133.413,95.482,132.458,96.436,131.283,96.436L131.283,96.436z"/>
	<path fill-rule="evenodd" clip-rule="evenodd" fill="#003B78" d="M59.48,92.096c-11.678-8.895-19.229-22.943-19.229-38.725
		c0-26.834,21.831-48.666,48.665-48.666c26.837,0,48.669,21.832,48.669,48.666c0,15.781-7.551,29.83-19.23,38.727L59.48,92.096
		L59.48,92.096z M132.738,92.096c-0.416-0.271-0.913-0.43-1.447-0.43c-0.536,0-1.034,0.158-1.45,0.432L132.738,92.096
		L132.738,92.096z M59.02,58.653c0,0,0.189-0.755-0.285-1.605c-0.563-1.131-1.979-1.131-1.979-1.131l1.511-4.81h-3.112
		c-1.132,2.36-1.793,4.905-2.36,7.547H59.02L59.02,58.653z M65.246,42.146H54.022v3.867h14.147c0,0-1.607-3.112-1.607-3.209
		C66.283,42.052,65.246,42.146,65.246,42.146L65.246,42.146z M73.075,89.488l3.581-11.881h-8.11l1.979,4.812l-2.829,4.15
		L73.075,89.488L73.075,89.488z M62.415,36.111h-8.488v3.583h11.224c0,0-1.417-2.83-1.417-2.923
		C63.36,36.111,62.415,36.111,62.415,36.111L62.415,36.111z M71.374,44.88c0,3.303,2.737,6.037,6.037,6.037
		c3.302,0,6.037-2.734,6.037-6.037c0-0.221-0.011-0.442-0.035-0.658H85.9v23.393h-7.168l-8.771-17.83h-4.998l-0.567,1.227h-3.584
		V56.2h1.227l2.64,7.639h-2.172l-1.129-3.02h-5.281v2.074h4.055l1.32,3.209h-1.887l-0.66-1.227h-2.546l-0.566,0.758l0.943,3.302
		l-1.507,1.98l1.319,3.959H77.41c0,0,1.322-4.338,1.322-4.244h7.262v12.166c0,1.604,0.753,2.922,1.601,4.152
		c2.174,3.203,5.945,4.426,9.624,3.486c-0.38-2.264-1.136-7.078-1.136-7.078c0.474,0,1.04,0.096,1.23,0.664
		c0.378,1.225,0.847,2.266,1.79,3.117c0.852,0.75,1.603,1.129,2.736,1.223c1.133,0.094,1.98,0,2.827-0.379
		c0.853-0.283,3.679-1.602,3.679-1.602l-2.826-6.318c0.283-0.096,0.752-0.189,1.128,0.281c1.509,1.791,3.023,2.83,5.47,2.549
		c2.452-0.283,3.682-1.791,6.319-4.057l-5.468-5.568c0.662-0.467,1.225-0.277,1.697,0.096c1.133,0.854,2.074,1.23,3.299,1.322
		c4.057,0.475,6.694-6.695,6.694-6.695l-6.599-3.301c0.662-1.605,2.166,0,3.398-0.094c1.604,0,3.961-1.036,4.524-3.02
		c0.565-1.886,0.85-3.491,1.323-5.471l-6.796-0.66c0.381-1.885,1.98-0.564,3.773-1.699c3.772-1.979,1.699-8.582,1.605-9.994
		c0-0.096-7.073,1.319-7.073,1.319c-0.189-0.564,0.094-1.133,0.662-1.319c1.694-0.757,2.635-1.228,3.487-2.455
		c1.792-3.864-0.853-6.509-2.171-9.336c-2.168,0.847-6.695,2.923-6.695,2.923c-0.094-0.376-0.188-1.131,0.375-1.507
		c0.854-0.663,2.075-0.755,2.834-2.923c0.844-3.116-1.697-5.568-3.583-7.923l-7.644,3.771c-0.467-1.131,0.853-1.697,1.324-2.454
		c0.75-1.038,1.033-2.074,0.377-3.204c-0.849-1.508-2.074-2.925-3.305-4.433l-7.355,3.866c-0.756-1.228,0.568-1.601,1.227-2.64
		c0.944-1.226,0.376-3.301-0.658-4.528c-12.266,4.436-24.808,7.828-35.276,16.508c-0.565,1.789,2.831,4.428,4.81,1.038l2.735,1.98
		c-0.149,0.109-0.285,0.225-0.408,0.338c-0.125,0.119-0.234,0.239-0.333,0.36c-0.698,0.867-0.76,1.828-0.438,2.635
		c0.369,1.105,1.41,1.947,2.686,1.947c0.914,0,1.758-0.485,2.283-1.202l1.936,2.58C73.209,39.826,71.374,42.101,71.374,44.88
		L71.374,44.88z"/>
</g>
</svg>
